<?xml version="1.0" encoding="UTF-8" standalone="no"?>
<!-- Created with Inkscape (http://www.inkscape.org/) -->

<svg
   width="500"
   height="500"
   viewBox="0 0 132.29167 132.29167"
   version="1.1"
   id="svg1"
   xml:space="preserve"
   xmlns="http://www.w3.org/2000/svg"
   xmlns:svg="http://www.w3.org/2000/svg"><defs
     id="defs1" /><g
     id="layer4"
     transform="matrix(0.37846448,0,0,0.37846448,-717.32925,-186.82325)"><path
       style="display:inline;fill:#000000;stroke-width:8.68682;stroke-dasharray:none"
       d="m 2126.066,805.94267 c -11.6524,-1.95305 -12.9013,-3.35784 -10.5509,-11.87023 1.2832,-4.64663 1.3353,-14.85083 0.1594,-31.29525 -1.8498,-25.88193 -2.3975,-28.55217 -7.3432,-35.79955 -1.7254,-2.52822 -3.7523,-6.66534 -4.5041,-9.19356 -0.7522,-2.52825 -3.1529,-6.66537 -5.335,-9.19359 -7.0218,-8.13538 -12.1676,-16.32113 -12.1676,-19.35597 0,-1.94565 -1.1001,-2.63712 -3.2178,-2.0224 -1.7697,0.51373 -7.8257,1.47352 -13.4576,2.13289 l -10.2399,1.19891 -2.2419,10.85488 c -1.2334,5.97018 -3.0335,19.33918 -4.0008,29.70885 -2.0049,21.49528 -7.6319,47.92708 -11.0898,52.0939 -4.5499,5.48218 -8.8418,6.62189 -14.1662,3.76197 -2.7621,-1.48349 -6.5825,-3.19309 -8.4897,-3.79913 -3.1373,-0.99684 -3.2,-1.40512 -0.6579,-4.28136 3.3956,-3.84139 9.7435,-26.91894 11.2433,-40.8731 0.5977,-5.56209 1.2428,-20.33127 1.4338,-32.82035 l 0.3472,-22.70744 -8.5474,-8.83831 c -4.7012,-4.86106 -9.599,-11.15452 -10.8847,-13.98543 -1.2854,-2.83093 -5.5058,-8.28663 -9.3782,-12.12378 -6.332,-6.27425 -8.0008,-6.97663 -16.5755,-6.97663 -6.0219,0 -12.0627,1.35488 -16.3961,3.67743 -3.774,2.0226 -8.5194,3.67743 -10.5456,3.67743 -2.0263,0 -3.684,0.81163 -3.684,1.80369 0,0.99202 -2.2753,2.31614 -5.0565,2.94245 -16.5521,3.72772 -19.1016,4.83381 -21.0623,9.13711 -1.8767,4.1183 -3.0898,4.50284 -14.1683,4.49136 -11.645,-0.0118 -12.2771,-0.24894 -16.2534,-6.08961 -5.0214,-7.37613 -5.1312,-12.72649 -0.4598,-22.39794 1.9539,-4.04515 3.5808,-9.44616 3.6152,-12.0022 0.074,-5.45124 4.761,-12.82046 8.1559,-12.82046 3.6106,0 7.5239,-5.54542 10.3802,-14.70972 1.4182,-4.55083 4.2544,-9.64373 6.3026,-11.31757 2.0482,-1.67385 6.5619,-5.60412 10.0308,-8.7339 3.4686,-3.12982 7.1923,-5.7203 8.2739,-5.75667 1.082,-0.0366 4.3915,-2.04777 7.3545,-4.46977 6.7696,-5.53383 5.2195,-7.79972 -10.0106,-14.63463 -6.0532,-2.71646 -11.0056,-5.63152 -11.0056,-6.47789 0,-5.19301 25.4222,-3.58334 33.5565,2.12469 l 5.0566,3.54824 v -12.07685 c 0,-6.64228 0.7709,-12.07686 1.7133,-12.07686 2.4482,0 8.6608,9.192 12.906,19.09529 2.9318,6.84043 4.524,8.48546 8.2126,8.48546 5.8147,0 14.0574,3.48942 17.6199,7.45904 2.9091,3.24186 11.0898,2.92234 50.4203,-1.96937 12.2877,-1.52832 15.0534,-1.36972 17.6879,1.01433 2.8149,2.54742 4.799,2.45993 20.1375,-0.88776 9.3588,-2.04252 17.7408,-3.2655 18.6268,-2.7177 0.8865,0.54776 1.6117,-0.18229 1.6117,-1.62206 0,-3.84252 21.9916,-8.6419 39.5722,-8.63615 17.2393,0.006 35.1572,4.49251 46.3469,11.60592 9.4984,6.03835 22.8642,25.69765 30.0044,44.13291 7.69,19.85479 9.7417,38.61323 8.5545,78.20643 -1.0668,35.56265 -2.4224,44.86243 -7.717,52.94315 -2.6317,4.01663 -3.5118,4.37217 -5.5872,2.25689 -3.4389,-3.50456 -3.7942,-11.16379 -2.0369,-43.88193 1.5444,-28.75429 -0.5637,-66.84017 -3.8831,-70.15964 -0.9718,-0.972 -4.3465,3.84166 -8.2243,11.73137 -3.6166,7.35884 -8.2863,15.18061 -10.3773,17.3817 -2.3813,2.50698 -3.0147,4.26421 -1.6953,4.70399 2.7351,0.91175 -2.5177,28.00601 -8.9659,46.24356 -2.5438,7.19561 -6.953,24.25316 -9.7977,37.90564 -2.8446,13.65245 -6.0698,28.70443 -7.1664,33.44881 -1.0969,4.74438 -1.4993,9.91576 -0.8942,11.49198 1.4083,3.66997 -2.3454,3.70793 -10.9545,0.11061 -9.9933,-4.17538 -11.2638,-8.07674 -7.6911,-23.61759 6.9949,-30.4281 10.5492,-43.98531 14.6307,-55.80457 6.2473,-18.09217 7.594,-25.29651 4.468,-23.90611 -1.3778,0.61286 -7.8834,3.30283 -14.4567,5.97765 l -11.9515,4.86333 -0.5824,37.04855 c -0.3189,20.37669 -0.9761,38.43184 -1.4573,40.1225 -0.6207,2.18023 -2.4102,2.87966 -6.1552,2.40572 -5.2471,-0.66409 -5.2836,-0.59955 -5.8972,10.39118 -0.3589,6.42445 0.3188,12.7369 1.6156,15.06207 4.9017,8.78531 3.5947,9.45194 -13.0573,6.66098 z m 4.8727,-44.48909 c -0.7405,-25.38857 -1.7818,-33.74796 -6.9287,-55.62117 -3.3314,-14.15809 -6.598,-29.05172 -7.2591,-33.09687 -0.6612,-4.04518 -1.5972,-8.70683 -2.0798,-10.3592 -0.5931,-2.03095 0.5637,-3.36605 3.5706,-4.12072 6.0695,-1.52333 15.2745,-12.42461 17.6185,-20.86511 1.0608,-3.82001 1.9334,-16.7366 1.9387,-28.70358 0,-16.59231 0.5563,-21.57336 2.309,-20.97982 1.6928,0.57331 2.2983,7.59507 2.2983,26.65761 0,25.85554 0,25.88663 -5.5844,33.82365 -3.0714,4.36937 -8.0713,9.62015 -11.1108,11.66836 -4.5375,3.05773 -5.2981,4.5431 -4.2519,8.30144 0.7008,2.51754 1.369,7.88705 1.4856,11.93223 0.355,12.34953 1.4409,12.98278 17.8806,10.42695 20.3239,-3.15969 37.3624,-11.49649 48.5791,-23.76955 4.9955,-5.46575 9.0827,-10.91313 9.0827,-12.10531 0,-1.19219 1.6152,-3.17633 3.5894,-4.40922 1.9741,-1.23286 6.7316,-8.67184 10.5726,-16.53105 6.6767,-13.66236 6.9831,-15.10201 6.9831,-32.80421 0,-17.12565 -0.3801,-19.08953 -5.065,-26.17501 -9.4749,-14.33002 -31.9161,-21.62028 -62.4249,-20.27935 -13.3754,0.58793 -19.0895,1.73225 -26.2846,5.26394 -5.0565,2.48203 -10.8486,4.67503 -12.8709,4.87339 -2.0227,0.19821 -10.6746,2.04644 -19.2263,4.10689 -12.0138,2.89458 -15.8742,3.23414 -16.98,1.49357 -0.7872,-1.239 -1.4703,-1.42532 -1.5178,-0.41403 -0.05,1.01132 -1.1816,0.39666 -2.5198,-1.36589 -2.141,-2.81999 -3.6942,-2.97142 -12.9431,-1.26167 -5.7807,1.06862 -12.934,1.41069 -15.8959,0.7601 -3.8335,-0.84201 -5.4048,-0.47848 -5.453,1.26168 -0.039,1.34447 -4.795,4.65777 -10.5729,7.36291 l -10.5045,4.91843 9.6531,1.2943 c 5.3095,0.71188 9.6532,1.94615 9.6532,2.74289 0,0.79673 3.1965,2.55181 7.1026,3.90021 10.7692,3.71728 29.672,19.43734 29.672,24.67606 0,4.59204 -33.1027,6.10328 -36.7746,1.67887 -3.5912,-4.3271 -7.3549,-3.32048 -7.3549,1.96709 0,5.33984 -9.3555,19.9801 -13.8767,21.71497 -1.6347,0.62737 -5.5416,1.1406 -8.682,1.1406 h -5.7099 l 5.2847,5.51616 c 3.9674,4.14089 6.9453,5.51613 11.9444,5.51613 6.9605,0 14.8103,4.1972 12.3852,6.62227 -0.7738,0.77373 -2.3859,0.42766 -3.5827,-0.76904 -1.1964,-1.19669 -4.4205,-2.1758 -7.1642,-2.1758 -4.7802,0 -4.9017,0.23095 -2.9067,5.51613 1.1451,3.03389 3.0087,5.51616 4.141,5.51616 1.1324,0 5.9242,4.26062 10.6481,9.46805 l 8.5892,9.46804 20.6314,-1.08842 c 11.9051,-0.62805 20.9056,-1.9107 21.2794,-3.03253 1.7704,-5.31046 6.5102,-0.71675 12.2449,11.86751 3.4618,7.59643 7.538,14.28897 9.0583,14.87233 1.5203,0.58334 3.7042,3.90936 4.8531,7.39108 1.149,3.4817 4.0769,9.88668 6.5063,14.23325 3.6769,6.57871 4.7069,11.99058 6.1467,32.29937 0.9517,13.4181 1.994,24.52269 2.3168,24.67689 0.3224,0.15426 2.2416,1.26596 4.2643,2.47062 2.0223,1.2046 3.7754,2.23889 3.8955,2.29839 0.1205,0.0593 -0.1736,-13.33753 -0.6533,-29.77103 z m 58.3548,-155.77347 c 0,-5.49643 -0.6349,-7.05359 -2.5722,-6.31015 -5.6525,2.16902 -4.3993,-2.87813 1.6414,-6.61148 3.5458,-2.19147 6.4468,-4.74441 6.4468,-5.67323 0,-5.12404 9.8165,1.13346 15.582,9.93284 2.7022,4.12397 2.8978,5.54294 1.0101,7.31967 -1.8229,1.71529 -2.5297,1.69182 -3.1887,-0.10589 -1.3286,-3.62507 -4.2097,-0.71152 -4.2097,4.25708 0,4.01053 -0.783,4.48827 -7.3549,4.48827 -7.3453,0 -7.3548,-0.009 -7.3548,-7.29714 z m 12.8709,0.0926 c 0,-1.9399 0.3904,-4.62899 0.8676,-5.97585 0.4773,-1.3468 -0.3366,-4.0369 -1.8094,-5.97795 -2.5413,-3.35035 -2.8549,-3.36834 -6.1842,-0.35521 -3.2386,2.93072 -3.4459,5.625 -1.0424,13.53765 1.1614,3.82323 8.1684,2.76926 8.1684,-1.22864 z m -158.3097,153.65818 c 1.2127,-5.20816 2.976,-18.15115 3.9185,-28.76222 0.9424,-10.61106 2.6884,-23.64805 3.8795,-28.9711 1.1912,-5.32305 1.8264,-9.97175 1.4112,-10.33041 -0.4152,-0.3587 -4.1492,-1.17128 -8.298,-1.80576 l -7.5433,-1.15357 -0.9931,30.06911 c -0.5463,16.53801 -1.8006,31.62869 -2.7876,33.53491 -0.9867,1.90619 -2.3387,6.48589 -3.0041,10.17709 -1.1968,6.63691 -1.1416,6.71136 5.0005,6.71136 5.966,0 6.298,-0.37348 8.4164,-9.46941 z m 130.7291,9.36526 c 0,-4.44355 12.1662,-56.51244 14.9268,-63.8832 4.4199,-11.80098 12.8015,-44.59457 11.6833,-45.71249 -0.4209,-0.42096 -1.5585,1.32064 -2.5279,3.87027 -0.9693,2.54961 -4.3022,6.44413 -7.4062,8.65444 -3.324,2.36688 -5.6528,5.66777 -5.6655,8.03064 -0.036,4.05488 -0.7763,6.90608 -11.0279,41.70559 -3.1281,10.61858 -6.5187,23.85735 -7.5345,29.41947 -1.0157,5.56211 -2.2487,11.49363 -2.7401,13.18114 -0.5541,1.90288 0.3578,3.39318 2.4007,3.9238 4.0411,1.04958 7.8913,1.44494 7.8913,0.81031 z m -29.4198,-21.69804 c 0,-3.6697 0.541,-16.73115 1.2022,-29.02547 l 1.2017,-22.35325 -4.4195,0.0177 -4.4198,0.0177 -0.3543,29.00913 c -0.3366,27.61985 -0.1842,29.0091 3.2177,29.0091 2.8808,0 3.5724,-1.29135 3.5724,-6.67216 z m 87.6761,-25.98146 c -0.5871,-1.46682 -1.0229,-1.03111 -1.1111,1.1109 -0.078,1.93831 0.3547,3.02428 0.9658,2.4133 0.6108,-0.61103 0.6764,-2.19689 0.1453,-3.5242 z m -98.7082,-11.60689 c 0,-9.39788 -0.5892,-11.95167 -2.7582,-11.95167 -1.5167,0 -2.7578,1.17803 -2.7578,2.6178 0,3.40521 4.1265,21.28551 4.9123,21.28551 0.3331,0 0.6037,-5.37824 0.6037,-11.95164 z m 104.5867,-35.85498 c 0.2232,-33.59783 -2.1329,-53.4525 -8.4054,-70.79055 l -3.3261,-9.19359 -0.5871,7.16971 c -0.3224,3.94334 1.2907,13.8724 3.5855,22.06458 3.6503,13.02924 4.2126,19.61618 4.4893,52.58858 0.1736,20.73152 0.5201,38.52109 0.7692,39.53238 1.5812,6.42634 3.2914,-13.93269 3.4746,-41.37111 z M 1930.6462,651.5902 c 4.6112,-8.6745 5.2149,-9.24636 4.2434,-4.02038 -1.0508,5.65385 -0.8361,6.00213 2.9821,4.83694 2.2629,-0.69059 8.2516,-3.1581 13.3081,-5.48339 15.2181,-6.99838 28.3923,-10.04289 43.457,-10.04289 14.3398,0 23.6561,-2.48976 23.6561,-6.32201 0,-1.12986 1.7126,-3.5209 3.8062,-5.31338 2.7029,-2.31441 3.6358,-4.96444 3.2177,-9.14253 -0.4996,-4.99338 0.071,-5.97656 3.7608,-6.49881 2.3919,-0.33846 5.2465,0.28227 6.3434,1.37901 2.913,2.91279 30.6945,2.637 30.6215,-0.30401 -0.082,-3.33283 -14.3551,-13.39887 -22.883,-16.1384 -4.0209,-1.29173 -9.8129,-3.87446 -12.8709,-5.73941 -3.0583,-1.86493 -7.7679,-3.39389 -10.4662,-3.39767 -2.6984,-0.003 -6.3157,-0.54779 -8.0387,-1.20897 -2.7865,-1.06918 -2.6721,-1.54943 1.0331,-4.34447 2.3132,-1.74485 3.5915,-4.07241 2.8737,-5.23344 -2.0074,-3.24839 -7.2882,-2.46994 -10.7614,1.58642 -3.6032,4.20806 -6.8623,4.80643 -6.8623,1.25991 0,-1.32964 3.0444,-3.8693 6.7656,-5.6437 l 6.7653,-3.22621 -5.3864,-4.40311 c -7.5525,-6.174 -18.8514,-6.15639 -24.6711,0.0383 -3.285,3.49669 -4.8762,4.09321 -6.7561,2.53294 -1.3527,-1.12248 -2.4591,-3.14721 -2.4591,-4.49941 0,-4.53449 -9.3754,-11.2113 -18.7962,-13.38584 -10.8294,-2.49978 -13.2011,-1.76764 -5.1185,1.58026 5.9058,2.44625 12.8822,10.66637 12.8822,15.17864 0,1.46007 -3.2092,4.10188 -7.132,5.87073 -3.9224,1.7688 -12.2629,7.89327 -18.5346,13.60992 -9.8718,8.9985 -11.5434,11.47578 -12.4493,18.45245 -0.7465,5.74847 -2.022,8.31365 -4.4493,8.94836 -1.8714,0.48942 -3.4026,1.56495 -3.4026,2.39015 0,0.82517 -1.5001,1.97648 -3.3336,2.55843 -2.1301,0.6761 -4.1829,4.37193 -5.6861,10.23682 -1.2939,5.04836 -3.1522,9.17881 -4.1297,9.17881 -0.9775,0 -1.2337,0.87956 -0.5694,1.95456 0.6643,1.07503 -0.2409,3.5573 -2.0152,5.51616 -1.7726,1.95887 -2.3348,3.56157 -1.2496,3.56157 1.0856,0 5.4643,3.35372 9.7304,7.4527 10.7866,10.36359 15.4753,9.57945 22.5747,-3.77527 z m 41.7751,-44.93215 c -3.1911,-3.84511 -1.3817,-7.63159 5.2975,-11.08544 4.5864,-2.37163 6.2445,-2.47398 9.2882,-0.57325 4.1992,2.62243 5.0881,7.36076 1.0934,5.82781 -1.7176,-0.65905 -2.8195,0.46232 -3.2177,3.27546 -0.7366,5.19758 -8.8819,6.86798 -12.4614,2.55536 z m 2.9985,-45.50971 c -0.5871,-1.46679 -1.0229,-1.03111 -1.1111,1.1109 -0.078,1.93834 0.355,3.02431 0.9658,2.41333 0.6112,-0.61103 0.6763,-2.19689 0.1453,-3.52423 z"
       id="path1-6" /><path
       d="m 1973.421,553.24513 c 4.7134,-8.65952 13.9026,-13.32572 23.1324,-12.69552 l -2.2555,4.1436 c -0.3582,0.65823 -0.1152,1.4823 0.5431,1.84058 0.6583,0.35828 1.4824,0.11512 1.8406,-0.54311 l 2.5949,-4.76737 c 0.056,-0.10214 0.114,-0.20206 0.1742,-0.2997 0.05,-0.0793 0.1,-0.15724 0.152,-0.23359 1.7467,-2.55499 5.1794,-3.42225 7.9564,-1.91071 l 2.3837,1.29748 c 2.8599,1.5567 3.9787,5.06736 2.6011,7.97359 -0.05,0.10384 -0.1019,0.20685 -0.1571,0.309 l -2.5949,4.76736 c -0.3583,0.65824 -0.1153,1.48234 0.5431,1.84058 0.6581,0.35823 1.4823,0.11513 1.8406,-0.54311 l 2.2554,-4.14361 c 5.5399,7.40911 6.6098,17.6594 1.8963,26.31892 l -1.8348,3.37078 0.596,0.32435 c 0.9873,0.53742 1.3522,1.77331 0.8147,2.76087 l -1.9463,3.57553 c -0.258,0.47411 -0.6938,0.82618 -1.2117,0.97902 -0.5176,0.15272 -1.075,0.0938 -1.5491,-0.16436 l -44.0982,-24.00313 c -0.9874,-0.53742 -1.352,-1.77353 -0.8146,-2.76086 l 1.9461,-3.57552 c 0.5375,-0.98756 1.7736,-1.3521 2.7609,-0.81466 l 0.596,0.32435 z m 16.5256,7.95721 c 0.5376,-0.98755 0.1728,-2.22344 -0.8146,-2.76086 -0.9874,-0.53742 -2.2233,-0.17289 -2.7609,0.81466 l -2.2705,4.17146 3.5755,1.9462 z m 4.8806,8.06385 2.2705,-4.17145 c 0.5375,-0.98755 0.1726,-2.22345 -0.8146,-2.76086 -0.9874,-0.5374 -2.2233,-0.17289 -2.7609,0.81466 l -2.2706,4.17146 z m 9.4216,-0.27905 c 0.5375,-0.98755 0.1726,-2.22345 -0.8146,-2.76086 -0.9874,-0.53742 -2.2234,-0.17289 -2.7609,0.81466 l -2.2706,4.17145 3.5755,1.9462 z"
       fill="#343c54"
       id="path1-5"
       style="fill:#001ad6;fill-opacity:1;stroke:#000000;stroke-width:2.71392;stroke-opacity:1" /><g
       style="fill:none"
       id="g27"
       transform="matrix(3.2796432,-1.3306536,1.3306536,3.2796432,1936.5999,710.02314)"><path
         d="M 14.1362,4.81223 14.0173,4.0966 C 13.8941,3.35513 13.2527,2.81152 12.5011,2.81152 c -0.751,0 -1.3921,0.54281 -1.5159,1.28359 L 10.8653,4.81223 H 6.66553 c -0.41422,0 -0.75,0.33579 -0.75,0.75 v 4.1836 c 0,0.41417 0.33578,0.74997 0.75,0.74997 H 18.3364 c 0.4142,0 0.75,-0.3358 0.75,-0.74997 v -0.1836 c 0,-2.62335 -2.1266,-4.75 -4.75,-4.75 z"
         fill="#343c54"
         id="path1-63"
         style="fill:#000000;fill-opacity:1" /><path
         d="m 14.6797,11.4961 h -4.3584 l -0.48413,8.9445 c -0.06975,1.2886 0.95633,2.3716 2.24673,2.3716 h 0.8332 c 1.2904,0 2.3165,-1.083 2.2467,-2.3716 z"
         fill="#343c54"
         id="path2-7"
         style="fill:#000000;fill-opacity:1" /></g></g></svg>
