<?xml version="1.0" encoding="UTF-8" standalone="no"?>
<!-- Created with Inkscape (http://www.inkscape.org/) -->

<svg
   width="660.56396"
   height="450.84262"
   viewBox="0 0 174.77422 119.28545"
   version="1.1"
   id="svg1"
   xml:space="preserve"
   xmlns="http://www.w3.org/2000/svg"
   xmlns:svg="http://www.w3.org/2000/svg"><defs
     id="defs1" /><g
     id="g19"
     transform="matrix(3.5429673,0,0,2.9495656,-3645.0551,-165.45945)"
     style="display:inline;fill:none;stroke-width:1.00008;stroke-dasharray:none"><path
       id="rect22"
       style="fill:#000000;fill-opacity:1;stroke-width:1.30218;stroke-linecap:round"
       d="m 1074.5268,56.096212 c 2.004,0 3.6173,1.937907 3.6173,4.345082 v 36.096621 h -7.2346 V 60.441294 c 0,-2.407175 1.6133,-4.345082 3.6173,-4.345082 z" /><path
       id="rect21"
       style="fill:#000000;fill-opacity:1;stroke-width:1.30218;stroke-linecap:round"
       d="m 1032.4316,56.096212 c 2.004,0 3.6173,1.937907 3.6173,4.345082 v 36.096621 h -7.2347 V 60.441294 c 0,-2.407175 1.6134,-4.345082 3.6174,-4.345082 z" /><path
       style="fill:none;fill-opacity:1;stroke:#000000;stroke-width:1.30218;stroke-linecap:round;stroke-dasharray:none;stroke-opacity:1"
       d="m 1036.3605,61.484757 34.3329,-0.08329"
       id="path21" /><path
       style="fill:none;fill-opacity:1;stroke:#000000;stroke-width:1.30218;stroke-linecap:round;stroke-dasharray:none;stroke-opacity:1"
       d="m 1036.3605,77.387553 34.3329,-0.08329"
       id="path20" /><path
       style="fill:none;fill-opacity:1;stroke:#000000;stroke-width:1.30218;stroke-linecap:round;stroke-dasharray:none;stroke-opacity:1"
       d="m 1036.3605,93.698113 34.3329,-0.08329"
       id="path19" /><path
       id="path6"
       style="fill:none;stroke:#000000;stroke-width:1.00008;stroke-linecap:round;stroke-dasharray:none;stroke-opacity:1"
       d="m 1041.7021,63.12867 -1.073,-1.682012 0.6777,-1.259288 m -2.5728,-0.871662 1.8951,2.13095 -2.0778,2.20715" /><path
       id="path6-7"
       style="fill:none;stroke:#000000;stroke-width:1.00008;stroke-linecap:round;stroke-dasharray:none;stroke-opacity:1"
       d="m 1052.6677,63.12867 -1.073,-1.682012 0.6777,-1.259288 m -2.5728,-0.871662 1.8951,2.13095 -2.0778,2.20715" /><path
       id="path6-7-4-3"
       style="fill:none;stroke:#000000;stroke-width:1.00008;stroke-linecap:round;stroke-dasharray:none;stroke-opacity:1"
       d="m 1055.9731,79.021977 -1.073,-1.682012 0.6777,-1.259288 m -2.5728,-0.871662 1.8951,2.13095 -2.0778,2.20715" /><path
       id="path6-7-4-3-3"
       style="fill:none;stroke:#000000;stroke-width:1.00008;stroke-linecap:round;stroke-dasharray:none;stroke-opacity:1"
       d="m 1042.2916,79.021977 -1.073,-1.682012 0.6777,-1.259288 m -2.5728,-0.871662 1.8951,2.13095 -2.0778,2.20715" /><path
       id="path6-7-4-3-3-5"
       style="fill:none;stroke:#000000;stroke-width:1.00008;stroke-linecap:round;stroke-dasharray:none;stroke-opacity:1"
       d="m 1048.4536,95.027256 -1.073,-1.682012 0.6777,-1.259288 m -2.5728,-0.871662 1.8951,2.13095 -2.0778,2.20715" /><path
       id="path6-7-4-3-3-5-9"
       style="fill:none;stroke:#000000;stroke-width:1.00008;stroke-linecap:round;stroke-dasharray:none;stroke-opacity:1"
       d="m 1068.8245,95.027256 -1.073,-1.682012 0.6777,-1.259288 m -2.5728,-0.871662 1.8951,2.13095 -2.0778,2.20715" /><path
       style="fill:none;stroke:#000000;stroke-width:1.00008;stroke-linecap:round;stroke-dasharray:none;stroke-opacity:1"
       d="m 1045.3124,60.090502 0.8396,1.394256 -1.0333,1.673244"
       id="path7" /><path
       style="fill:none;stroke:#000000;stroke-width:1.00008;stroke-linecap:round;stroke-dasharray:none;stroke-opacity:1"
       d="m 1061.3858,75.844315 0.8396,1.394256 -1.0333,1.673244"
       id="path7-3" /><path
       id="path9"
       style="fill:none;stroke:#000000;stroke-width:1.00008;stroke-linecap:round;stroke-dasharray:none;stroke-opacity:1"
       d="m 1056.8833,61.252923 -0.5548,1.16242 m 0,-2.705841 0.5548,1.543421 1.4149,1.743631" /><path
       id="path9-8"
       style="fill:none;stroke:#000000;stroke-width:1.00008;stroke-linecap:round;stroke-dasharray:none;stroke-opacity:1"
       d="m 1046.4479,77.27796 -0.5548,1.16242 m 0,-2.705841 0.5548,1.543421 1.4149,1.743631" /><path
       id="path12"
       style="fill:none;stroke:#000000;stroke-width:1.00008;stroke-linecap:round;stroke-dasharray:none;stroke-opacity:1"
       d="m 1062.4115,61.353028 1.8083,-1.197946 m -1.6145,-0.82658 -0.1938,2.024526 0.4844,2.185974" /><path
       id="path12-3"
       style="fill:none;stroke:#000000;stroke-width:1.00008;stroke-linecap:round;stroke-dasharray:none;stroke-opacity:1"
       d="m 1054.092,93.30262 1.8083,-1.197946 m -1.6145,-0.82658 -0.1938,2.024526 0.4844,2.185974" /><path
       id="path12-3-6"
       style="fill:none;stroke:#000000;stroke-width:1.00008;stroke-linecap:round;stroke-dasharray:none;stroke-opacity:1"
       d="m 1039.2793,93.30262 1.8083,-1.197946 m -1.6145,-0.82658 -0.1938,2.024526 0.4844,2.185974" /><path
       id="path14"
       style="fill:none;stroke:#000000;stroke-width:1.00008;stroke-linecap:round;stroke-dasharray:none;stroke-opacity:1"
       d="m 1068.4622,61.433752 0.5813,0.884722 m -0.5813,-2.544392 v 1.65967 l -0.904,1.595092" /><path
       id="path14-9"
       style="fill:none;stroke:#000000;stroke-width:1.00008;stroke-linecap:round;stroke-dasharray:none;stroke-opacity:1"
       d="m 1066.8746,77.410354 0.5813,0.884722 m -0.5813,-2.544392 v 1.65967 l -0.904,1.595092" /><path
       id="path14-9-2"
       style="fill:none;stroke:#000000;stroke-width:1.00008;stroke-linecap:round;stroke-dasharray:none;stroke-opacity:1"
       d="m 1061.2047,93.415633 0.5813,0.884722 m -0.5813,-2.544392 v 1.65967 l -0.904,1.595092" /></g></svg>
