<?xml version="1.0" encoding="UTF-8" standalone="no"?>
<!-- Created with Inkscape (http://www.inkscape.org/) -->

<svg
   width="500"
   height="500"
   viewBox="0 0 132.29166 132.29167"
   version="1.1"
   id="svg1"
   xml:space="preserve"
   xmlns:inkscape="http://www.inkscape.org/namespaces/inkscape"
   xmlns:sodipodi="http://sodipodi.sourceforge.net/DTD/sodipodi-0.dtd"
   xmlns="http://www.w3.org/2000/svg"
   xmlns:svg="http://www.w3.org/2000/svg"><sodipodi:namedview
     id="namedview1"
     pagecolor="#505050"
     bordercolor="#eeeeee"
     borderopacity="1"
     inkscape:showpageshadow="0"
     inkscape:pageopacity="0"
     inkscape:pagecheckerboard="0"
     inkscape:deskcolor="#505050"
     inkscape:document-units="mm" /><defs
     id="defs1" /><g
     inkscape:label="Capa 1"
     inkscape:groupmode="layer"
     id="layer1"><path
       style="fill:#000000;stroke-width:3.28766"
       d="m 87.444134,118.38915 c -4.410127,-0.73916 -4.882692,-1.27082 -3.993156,-4.49246 0.485569,-1.75858 0.505308,-5.62051 0.06053,-11.84414 -0.700029,-9.795396 -0.907319,-10.805981 -2.779143,-13.548855 -0.652983,-0.956845 -1.42008,-2.522598 -1.70466,-3.479442 -0.28458,-0.956848 -1.193146,-2.522598 -2.019029,-3.479446 -2.657537,-3.078949 -4.605033,-6.176966 -4.605033,-7.325547 0,-0.736361 -0.416356,-0.998049 -1.217806,-0.765408 -0.669793,0.194433 -2.961754,0.557677 -5.093244,0.807233 l -3.875442,0.453737 -0.848532,4.108192 c -0.466694,2.259502 -1.148029,7.319185 -1.514077,11.243738 -0.758786,8.135206 -2.888377,18.138698 -4.197166,19.715698 -1.721943,2.07481 -3.346219,2.50615 -5.361395,1.42376 -1.045273,-0.56144 -2.491135,-1.20846 -3.213023,-1.43783 -1.187383,-0.37727 -1.211116,-0.53178 -0.248909,-1.62034 1.285062,-1.45383 3.687564,-10.187863 4.255116,-15.469013 0.226225,-2.105061 0.470422,-7.694667 0.542656,-12.421346 l 0.131342,-8.593958 -3.234817,-3.344986 c -1.779165,-1.83974 -3.632911,-4.221586 -4.119452,-5.29299 -0.486541,-1.071403 -2.083737,-3.136187 -3.549321,-4.588413 -2.396437,-2.374587 -3.027994,-2.640408 -6.273305,-2.640408 -2.279089,0 -4.565317,0.51277 -6.205354,1.39178 -1.428214,0.765476 -3.224188,1.391776 -3.991055,1.391776 -0.766864,0 -1.394298,0.307166 -1.394298,0.682631 0,0.375447 -0.861164,0.876573 -1.913693,1.113616 -6.264359,1.410809 -7.229324,1.82942 -7.971386,3.458069 -0.710155,1.558626 -1.16927,1.704164 -5.3622007,1.699814 C 3.3410969,65.530012 3.1018307,65.440392 1.5969852,63.229915 -0.30347467,60.438311 -0.345034,58.413386 1.4230021,54.753093 2.162506,53.222141 2.77818,51.178056 2.7911696,50.210684 c 0.027616,-2.063097 1.8019449,-4.852087 3.0867143,-4.852087 1.3665664,0 2.8476059,-2.098746 3.9285862,-5.567108 0.5367929,-1.722325 1.6101719,-3.649812 2.3852879,-4.283306 0.775113,-0.63349 2.483435,-2.120953 3.796271,-3.305469 1.312833,-1.184518 2.722007,-2.164929 3.131499,-2.178694 0.409488,-0.01381 1.661983,-0.775004 2.783325,-1.691647 2.56205,-2.094354 1.975449,-2.951917 -3.78862,-5.53868 -2.29088,-1.028085 -4.165235,-2.131332 -4.165235,-2.451659 0,-1.965365 9.621437,-1.356168 12.699968,0.804119 l 1.913693,1.342889 v -4.57066 c -4e-6,-2.513866 0.291809,-4.570664 0.648501,-4.570664 0.926539,0 3.277737,3.478844 4.884338,7.226892 1.109715,2.588857 1.712297,3.211438 3.108292,3.211438 2.200623,0 5.320198,1.320628 6.668416,2.822981 1.101058,1.226939 4.197119,1.106009 19.082289,-0.74533 4.650573,-0.578415 5.69723,-0.518392 6.694234,0.383881 1.065331,0.964114 1.816302,0.931007 7.62146,-0.335986 3.541828,-0.773015 6.714131,-1.235865 7.049564,-1.028555 0.335434,0.20732 0.609881,-0.06894 0.609881,-0.613889 0,-1.454248 8.323021,-3.270646 14.976666,-3.268476 6.52448,0.0021 13.30578,1.700264 17.54066,4.392436 3.59485,2.285297 8.65327,9.72564 11.35557,16.702734 2.91039,7.514339 3.68695,14.613734 3.23756,29.598356 -0.40365,13.459199 -0.91665,16.978836 -2.9205,20.037099 -0.99604,1.520156 -1.32918,1.654713 -2.11467,0.854154 -1.30137,-1.326345 -1.43593,-4.225094 -0.77087,-16.607754 0.58449,-10.882476 -0.21327,-25.296626 -1.46956,-26.552927 -0.36787,-0.367867 -1.64503,1.453936 -3.11257,4.439906 -1.3688,2.785061 -3.13616,5.745319 -3.92747,6.578354 -0.90129,0.948809 -1.14099,1.613858 -0.64167,1.780296 1.0352,0.345066 -0.95287,10.599277 -3.39317,17.501544 -0.96282,2.72329 -2.63148,9.178961 -3.70813,14.345934 -1.07666,5.166973 -2.29716,10.863614 -2.71223,12.659194 -0.41508,1.79558 -0.56739,3.75276 -0.33848,4.3493 0.53299,1.38895 -0.88763,1.40332 -4.14589,0.0419 -3.782027,-1.58023 -4.262851,-3.05676 -2.910747,-8.93842 2.647347,-11.515958 3.992557,-16.646872 5.537177,-21.120043 2.36442,-6.847245 2.87403,-9.573836 1.69103,-9.047616 -0.52145,0.231945 -2.98357,1.250003 -5.47137,2.26233 l -4.523283,1.840598 -0.220372,14.021557 c -0.121216,7.711857 -0.369402,14.545084 -0.551539,15.184944 -0.23487,0.82514 -0.912129,1.08985 -2.329437,0.91048 -1.985883,-0.25134 -1.999734,-0.22691 -2.232017,3.93269 -0.135781,2.43142 0.120493,4.82046 0.611469,5.70046 1.855093,3.32492 1.360523,3.57722 -4.941653,2.52094 z m 1.8441,-16.83754 C 89.007928,91.942945 88.613835,88.779211 86.666,80.500974 85.405205,75.142633 84.168896,69.505935 83.918652,67.974979 c -0.250257,-1.530956 -0.604437,-3.295218 -0.78709,-3.920584 -0.224514,-0.768643 0.213337,-1.273924 1.351348,-1.559549 2.297054,-0.576525 5.780786,-4.702266 6.66789,-7.896704 0.401483,-1.44573 0.731715,-6.334208 0.733849,-10.863286 0.003,-6.2796 0.21041,-8.164746 0.873743,-7.940117 0.640732,0.216986 0.869859,2.874473 0.869859,10.088966 0,9.785404 -0.0019,9.797164 -2.113523,12.801045 -1.162439,1.653655 -3.054676,3.640886 -4.20497,4.416068 -1.717229,1.157241 -2.005169,1.719395 -1.609259,3.141792 0.265216,0.952805 0.518198,2.984968 0.562214,4.515924 0.134366,4.673867 0.545347,4.913524 6.767239,3.946228 7.691888,-1.195828 14.140308,-4.351008 18.385498,-8.99592 1.89058,-2.068591 3.43741,-4.130238 3.43741,-4.581437 0,-0.451196 0.6113,-1.202124 1.35845,-1.668726 0.74715,-0.466601 2.54776,-3.281991 4.00136,-6.256419 2.52692,-5.170711 2.64291,-5.715572 2.64291,-12.415234 0,-6.481443 -0.14384,-7.224699 -1.91688,-9.906304 -3.58591,-5.423407 -12.07917,-8.182516 -23.625705,-7.675012 -5.06214,0.222508 -7.224702,0.655586 -9.947742,1.992215 -1.913692,0.939354 -4.105741,1.769334 -4.871218,1.844398 -0.76548,0.07506 -4.03988,0.774508 -7.276446,1.554318 -4.546818,1.095496 -6.007809,1.224004 -6.426312,0.565258 -0.297896,-0.468916 -0.556401,-0.539426 -0.574434,-0.15669 -0.01808,0.38274 -0.447152,0.150115 -0.953597,-0.516942 -0.810293,-1.067268 -1.398216,-1.124575 -4.898591,-0.477497 -2.187782,0.404435 -4.894955,0.53389 -6.015946,0.287671 -1.450892,-0.318674 -2.045574,-0.181085 -2.063873,0.477496 -0.01414,0.508835 -1.814754,1.762806 -4.001362,2.786604 l -3.975649,1.861451 3.653415,0.489839 c 2.00938,0.269424 3.653415,0.736552 3.653415,1.038086 0,0.301545 1.20962,0.965781 2.688043,1.476099 4.075752,1.406856 11.229729,7.356342 11.229729,9.339014 0,1.737917 -12.528083,2.309866 -13.917772,0.63539 -1.359133,-1.637654 -2.783555,-1.256683 -2.783555,0.744478 0,2.020933 -3.540836,7.561749 -5.2519,8.218345 -0.618709,0.237435 -2.097352,0.431673 -3.285871,0.431673 h -2.160945 l 2.000109,2.087666 c 1.501459,1.567187 2.628466,2.087666 4.520467,2.087666 2.634339,0 5.605176,1.588484 4.687366,2.506294 -0.292832,0.292832 -0.902983,0.161852 -1.355888,-0.291057 -0.452909,-0.452908 -1.673089,-0.823467 -2.71151,-0.823467 -1.80901,0 -1.855054,0.08739 -1.100036,2.087666 0.433403,1.148216 1.138679,2.087666 1.567282,2.087666 0.428599,0 2.242061,1.612493 4.029915,3.583319 l 3.250644,3.583316 7.808298,-0.411921 c 4.505653,-0.237698 7.912037,-0.723135 8.053561,-1.14771 0.66994,-2.009824 2.463778,-0.271265 4.634204,4.491437 1.310166,2.874972 2.852866,5.407863 3.428217,5.628646 0.575351,0.220767 1.401905,1.479547 1.836788,2.797256 0.434882,1.317705 1.542949,3.741758 2.46237,5.386783 1.391583,2.489809 1.781371,4.538007 2.326357,12.224164 0.360072,5.07827 0.754614,9.28097 0.876757,9.33932 0.122137,0.0584 0.848382,0.47912 1.613858,0.93504 0.765477,0.45591 1.428943,0.84735 1.474372,0.86986 0.04544,0.0224 -0.06585,-5.04777 -0.247298,-11.26727 z M 111.37342,42.596884 c 0,-2.080203 -0.24023,-2.669536 -0.97345,-2.388171 -2.13922,0.8209 -1.66504,-1.089262 0.62117,-2.502211 1.34197,-0.829385 2.43994,-1.79558 2.43994,-2.147103 0,-1.939278 3.71513,0.428964 5.89719,3.759222 1.02266,1.560775 1.09677,2.097811 0.38227,2.770237 -0.6898,0.649175 -0.95736,0.640292 -1.20672,-0.04008 -0.50282,-1.371969 -1.5933,-0.269293 -1.5933,1.611152 0,1.517835 -0.29631,1.698653 -2.78355,1.698653 -2.77989,0 -2.78355,-0.0036 -2.78355,-2.761713 z m 4.87122,0.03508 c 0,-0.734175 0.14774,-1.75191 0.32834,-2.26164 0.18059,-0.509725 -0.12757,-1.527829 -0.68482,-2.262448 -0.96183,-1.267982 -1.08045,-1.274794 -2.34053,-0.134432 -1.22563,1.109175 -1.30413,2.12886 -0.39447,5.123523 0.43953,1.446953 3.09147,1.048065 3.09147,-0.465 z M 56.329989,100.78613 c 0.459017,-1.971105 1.126412,-6.869571 1.483101,-10.885481 0.356688,-4.01591 1.017396,-8.949949 1.46824,-10.964533 0.450844,-2.014581 0.691166,-3.773945 0.534048,-3.909696 -0.157117,-0.135747 -1.570345,-0.443285 -3.14051,-0.683406 l -2.854839,-0.436589 -0.375905,11.380088 c -0.206761,6.259046 -0.68146,11.970344 -1.054922,12.691772 -0.373462,0.721425 -0.885128,2.454685 -1.137038,3.851675 -0.452941,2.51183 -0.431953,2.54 1.892615,2.54 2.257928,0 2.383549,-0.14134 3.18521,-3.58383 z m 49.476321,3.54442 c 0,-1.68173 4.60457,-21.387957 5.64933,-24.177519 1.67273,-4.466251 4.84483,-16.877461 4.42173,-17.300553 -0.15932,-0.15932 -0.58985,0.49981 -0.95672,1.464752 -0.36687,0.964942 -1.62823,2.438871 -2.80302,3.275397 -1.25802,0.895789 -2.13939,2.145058 -2.14425,3.039319 -0.008,1.534622 -0.29369,2.613709 -4.17362,15.784083 -1.18392,4.018757 -2.4671,9.029155 -2.85153,11.134219 -0.38443,2.105064 -0.8511,4.349932 -1.03704,4.988592 -0.20969,0.72018 0.13545,1.2842 0.90866,1.48503 1.52933,0.39722 2.98646,0.54685 2.98646,0.30667 z M 94.672084,96.118609 c 0,-1.38885 0.20469,-6.332147 0.454888,-10.985101 l 0.454884,-8.459919 -1.67269,0.0062 -1.672691,0.0062 -0.134104,10.978923 c -0.127693,10.453131 -0.06937,10.97892 1.217803,10.97892 1.090265,0 1.351923,-0.48874 1.351923,-2.525178 z m 33.182146,-9.833058 c -0.22215,-0.555135 -0.38704,-0.390239 -0.42044,0.420433 -0.0302,0.733583 0.13427,1.14459 0.3655,0.913352 0.23125,-0.231254 0.25594,-0.83144 0.0549,-1.333785 z M 90.496752,81.892754 c 0,-3.556765 -0.223035,-4.523279 -1.043833,-4.523279 -0.574108,0 -1.043833,0.445837 -1.043833,0.990744 0,1.288748 1.561805,8.05581 1.859239,8.05581 0.125622,0 0.228427,-2.035475 0.228427,-4.523275 z M 130.07912,68.322925 c 0.085,-12.715592 -0.80725,-20.229874 -3.1812,-26.791717 l -1.25879,-3.479442 -0.22218,2.713476 c -0.1222,1.492411 0.48848,5.25021 1.35705,8.350663 1.38141,4.931107 1.59422,7.42403 1.699,19.902907 0.0659,7.846145 0.19687,14.578868 0.29106,14.961608 0.59852,2.43213 1.24567,-5.27303 1.31507,-15.657495 z M 13.484621,59.972258 c 1.745207,-3.282988 1.97364,-3.499411 1.606,-1.52157 -0.397741,2.139782 -0.31647,2.271598 1.128583,1.830614 0.856452,-0.261369 3.122937,-1.19523 5.03663,-2.075272 5.759581,-2.648633 10.745519,-3.80088 16.446944,-3.80088 5.427109,0 8.95299,-0.94228 8.95299,-2.392656 0,-0.427613 0.648251,-1.332529 1.440558,-2.010922 1.022999,-0.875919 1.375992,-1.878866 1.217807,-3.460127 -0.189041,-1.889811 0.0263,-2.261915 1.423255,-2.459569 0.905307,-0.128088 1.985673,0.106783 2.400816,0.521916 1.102389,1.102386 11.616687,0.998003 11.589153,-0.115068 -0.03123,-1.261358 -5.432971,-5.070997 -8.660394,-6.107807 -1.521771,-0.488869 -3.71382,-1.466341 -4.871219,-2.172159 -1.157402,-0.705815 -2.939913,-1.284473 -3.961144,-1.285904 -1.021227,-0.0014 -2.390282,-0.20732 -3.042344,-0.457544 -1.054511,-0.404655 -1.011278,-0.586413 0.391111,-1.644235 0.875455,-0.660357 1.359156,-1.541254 1.087581,-1.980666 -0.759811,-1.229405 -2.758414,-0.934781 -4.072878,0.600403 -1.363627,1.5926 -2.597076,1.819064 -2.597076,0.476829 0,-0.503219 1.152207,-1.464394 2.560461,-2.135945 l 2.560462,-1.220999 -2.038545,-1.666417 c -2.858446,-2.336644 -7.13463,-2.329977 -9.337213,0.01446 -1.243239,1.323367 -1.8454,1.549127 -2.556913,0.958627 -0.511879,-0.424825 -0.930691,-1.191117 -0.930691,-1.702871 0,-1.716144 -3.54825,-4.243077 -7.113625,-5.066065 -4.098627,-0.946077 -4.996136,-0.668987 -1.937186,0.598072 2.235117,0.925816 4.875479,4.036845 4.875479,5.744579 0,0.552584 -1.214631,1.552415 -2.699178,2.221855 -1.484547,0.669437 -4.641177,2.987332 -7.014732,5.15088 -3.736179,3.405608 -4.368735,4.343174 -4.711668,6.983598 -0.282574,2.175591 -0.7652624,3.146412 -1.6838749,3.386631 -0.7082711,0.185227 -1.2877644,0.592283 -1.2877644,0.904591 0,0.312295 -0.5677432,0.748025 -1.2616538,0.968266 -0.8061481,0.255879 -1.5830919,1.654625 -2.1519726,3.874281 -0.4896777,1.910618 -1.193014,3.473849 -1.5629713,3.473849 -0.3699575,0 -0.4669172,0.332883 -0.2154735,0.739738 0.2514405,0.406858 -0.091759,1.346307 -0.7626753,2.087666 -0.6709199,0.741361 -0.88372708,1.347928 -0.4728974,1.347928 0.4108263,0 2.0680024,1.269262 3.6826164,2.820578 4.0822778,3.922254 5.8568168,3.625487 8.5436328,-1.428802 z M 29.295107,42.967032 c -1.20774,-1.455238 -0.522949,-2.888277 2.004823,-4.195439 1.735734,-0.897584 2.363336,-0.936316 3.515244,-0.216953 1.589227,0.99249 1.925673,2.785778 0.413805,2.205621 -0.650053,-0.249435 -1.066981,0.174969 -1.217806,1.239643 -0.278662,1.967094 -3.361487,2.599279 -4.716066,0.967112 z m 1.134707,-17.223796 c -0.222147,-0.555135 -0.38704,-0.390239 -0.420433,0.420433 -0.03025,0.733583 0.134268,1.14459 0.365493,0.913352 0.231254,-0.231254 0.255945,-0.83144 0.05494,-1.333785 z"
       id="path1" /></g></svg>
